# xmcd CD database file generated by MAGIX-FreeDB-Music_Manager_2007 v2.0beta1
# 
# Track frame offsets:
#      150
#      11162
#      33425
#      51425
#      63437
#      73532
#      98580
#      110600
#      122985
#      134967
#      148252
#      159650
#      171215
#      184952
#      200222
#      215445
#      224732
#      240987
#      255752
#      268252
#      276955
#      291987
#      304035
#      325245
#      336137
# 
# Disc length: 4776 seconds
# 
# Revision: 6 
# Processed by: cddbd v1.5.2PL0 Copyright (c) Steve Scherf et al.
# Submitted via: MAGIX-FreeDB-Music_Manager_2007 v2.0beta1
# 
DISCID=9e12a619
DTITLE=Various Artist - From Blues to Beat - CD3
DYEAR=1900
DGENRE=Blues
TTITLE0=john lee hooker. -  Boom Boom
TTITLE1=howlin wolf. - Wang Dong Doodle
TTITLE2=muddy waters. -  Baby Please Don't Go
TTITLE3=john lee hooker. -  Whisky And Women
TTITLE4=screaming jay hawkins. - I Put A Spell On You
TTITLE5=howlin wolf. -  Little Red Rooster
TTITLE6=bo biddley. -  I'm A Man
TTITLE7=elmore james. - The Sky Is Crying
TTITLE8=john lee hooker. -  I'm In The Mood
TTITLE9=b.b.king. - Please Love
TTITLE10=lightin hopkins. - Tell Me Pretty Mama
TTITLE11=b.b.king. -  Everyday I Have The Blues
TTITLE12=etta james. - All Could Do Was Cry
TTITLE13=albert collins. -  Frosty
TTITLE14=elmore james. -  I Believe
TTITLE15=canned heat. -  Rollin' And Tumblin' (Harmonica Version)
TTITLE16=b.b.king. - The Other Night Blues
TTITLE17=elmore james. -  It Hurts Me Too
TTITLE18=muddy waters. -  Mean Mistreater
TTITLE19=canned heat. - Pretty Thing
TTITLE20=steely dan. -  Deacon Blues
TTITLE21=canned heat. - Got My Mojo Working
TTITLE22=lightnin hopkins. -  Jake Head Boogie
TTITLE23=b.b.king. - Catfish Blues
TTITLE24=jimi hendriks. -  People's People
EXTD=
EXTT0=
EXTT1=
EXTT2=
EXTT3=
EXTT4=
EXTT5=
EXTT6=
EXTT7=
EXTT8=
EXTT9=
EXTT10=
EXTT11=
EXTT12=
EXTT13=
EXTT14=
EXTT15=
EXTT16=
EXTT17=
EXTT18=
EXTT19=
EXTT20=
EXTT21=
EXTT22=
EXTT23=
EXTT24=
PLAYORDER=
